<mxfile host="65bd71144e">
    <diagram id="dzH8AbBxTpVTIcs8sDzF" name="Packages">
        <mxGraphModel dx="2794" dy="498" grid="1" gridSize="10" guides="1" tooltips="0" connect="1" arrows="1" fold="1" page="1" pageScale="1" pageWidth="1654" pageHeight="1169" math="0" shadow="0">
            <root>
                <mxCell id="0"/>
                <mxCell id="1" parent="0"/>
                <mxCell id="117" value="Util" style="shape=folder;fontStyle=1;tabWidth=110;tabHeight=30;tabPosition=left;html=1;boundedLbl=1;labelInHeader=1;container=1;collapsible=0;recursiveResize=0;" parent="1" vertex="1">
                    <mxGeometry x="-1320" y="40" width="150" height="160" as="geometry"/>
                </mxCell>
                <mxCell id="118" value="UI" style="html=1;" parent="117" vertex="1">
                    <mxGeometry width="110" height="30" relative="1" as="geometry">
                        <mxPoint x="20" y="50" as="offset"/>
                    </mxGeometry>
                </mxCell>
                <mxCell id="119" value="XML" style="html=1;" parent="117" vertex="1">
                    <mxGeometry x="20" y="100" width="110" height="30" as="geometry"/>
                </mxCell>
                <mxCell id="120" value="Use" style="endArrow=open;endSize=12;dashed=1;html=1;exitX=1;exitY=0.5;exitDx=0;exitDy=0;entryX=0;entryY=0.5;entryDx=0;entryDy=0;" parent="1" source="122" target="118" edge="1">
                    <mxGeometry width="160" relative="1" as="geometry">
                        <mxPoint x="-1030" y="260" as="sourcePoint"/>
                        <mxPoint x="-870" y="260" as="targetPoint"/>
                    </mxGeometry>
                </mxCell>
                <mxCell id="121" value="System.Windows" style="shape=folder;fontStyle=1;tabWidth=110;tabHeight=30;tabPosition=left;html=1;boundedLbl=1;labelInHeader=1;container=1;collapsible=0;recursiveResize=0;" parent="1" vertex="1">
                    <mxGeometry x="-1600" y="40" width="150" height="100" as="geometry"/>
                </mxCell>
                <mxCell id="122" value="MainWindow" style="html=1;" parent="121" vertex="1">
                    <mxGeometry width="110" height="30" relative="1" as="geometry">
                        <mxPoint x="20" y="50" as="offset"/>
                    </mxGeometry>
                </mxCell>
                <mxCell id="123" value="Task" style="shape=folder;fontStyle=1;tabWidth=110;tabHeight=30;tabPosition=left;html=1;boundedLbl=1;labelInHeader=1;container=1;collapsible=0;recursiveResize=0;" parent="1" vertex="1">
                    <mxGeometry x="-1320" y="240" width="310" height="180" as="geometry"/>
                </mxCell>
                <mxCell id="124" value="Container" style="html=1;" parent="123" vertex="1">
                    <mxGeometry width="110" height="30" relative="1" as="geometry">
                        <mxPoint x="20" y="50" as="offset"/>
                    </mxGeometry>
                </mxCell>
                <mxCell id="125" value="{ Worker }" style="html=1;" parent="123" vertex="1">
                    <mxGeometry x="182" y="50" width="110" height="30" as="geometry"/>
                </mxCell>
                <mxCell id="126" value="" style="endArrow=diamondThin;endFill=0;endSize=24;html=1;entryX=1;entryY=0.5;entryDx=0;entryDy=0;exitX=0;exitY=0.5;exitDx=0;exitDy=0;" parent="123" source="125" target="124" edge="1">
                    <mxGeometry width="160" relative="1" as="geometry">
                        <mxPoint x="-40" y="-40" as="sourcePoint"/>
                        <mxPoint x="120" y="-40" as="targetPoint"/>
                    </mxGeometry>
                </mxCell>
                <mxCell id="136" value="Service" style="html=1;" parent="123" vertex="1">
                    <mxGeometry x="182" y="126" width="110" height="30" as="geometry"/>
                </mxCell>
                <mxCell id="138" value="Background" style="html=1;" parent="123" vertex="1">
                    <mxGeometry x="50" y="126" width="110" height="30" as="geometry"/>
                </mxCell>
                <mxCell id="139" value="" style="endArrow=block;dashed=1;endFill=0;endSize=12;html=1;exitX=0.5;exitY=0;exitDx=0;exitDy=0;entryX=0.5;entryY=1;entryDx=0;entryDy=0;edgeStyle=orthogonalEdgeStyle;" parent="123" source="138" target="125" edge="1">
                    <mxGeometry width="160" relative="1" as="geometry">
                        <mxPoint x="70" y="120" as="sourcePoint"/>
                        <mxPoint x="230" y="120" as="targetPoint"/>
                    </mxGeometry>
                </mxCell>
                <mxCell id="140" value="" style="endArrow=block;dashed=1;endFill=0;endSize=12;html=1;entryX=0.5;entryY=1;entryDx=0;entryDy=0;" parent="123" source="136" target="125" edge="1">
                    <mxGeometry width="160" relative="1" as="geometry">
                        <mxPoint x="70" y="120" as="sourcePoint"/>
                        <mxPoint x="230" y="120" as="targetPoint"/>
                    </mxGeometry>
                </mxCell>
                <mxCell id="127" value="Use" style="endArrow=open;endSize=12;dashed=1;html=1;exitX=0.5;exitY=1;exitDx=0;exitDy=0;entryX=0;entryY=0.5;entryDx=0;entryDy=0;edgeStyle=orthogonalEdgeStyle;" parent="1" source="122" target="124" edge="1">
                    <mxGeometry width="160" relative="1" as="geometry">
                        <mxPoint x="-1515" y="130" as="sourcePoint"/>
                        <mxPoint x="-1515" y="210" as="targetPoint"/>
                    </mxGeometry>
                </mxCell>
                <mxCell id="130" value="Access" style="endArrow=open;endSize=12;dashed=1;html=1;entryX=0.75;entryY=1;entryDx=0;entryDy=0;exitX=0.5;exitY=0;exitDx=0;exitDy=0;edgeStyle=orthogonalEdgeStyle;" parent="1" source="124" target="122" edge="1">
                    <mxGeometry width="160" relative="1" as="geometry">
                        <mxPoint x="-1440" y="260" as="sourcePoint"/>
                        <mxPoint x="-1280" y="260" as="targetPoint"/>
                        <Array as="points">
                            <mxPoint x="-1245" y="220"/>
                            <mxPoint x="-1497" y="220"/>
                        </Array>
                    </mxGeometry>
                </mxCell>
                <mxCell id="143" value="Tester" style="shape=folder;fontStyle=1;tabWidth=110;tabHeight=30;tabPosition=left;html=1;boundedLbl=1;labelInHeader=1;container=1;collapsible=0;recursiveResize=0;strokeColor=#FF3333;" parent="1" vertex="1">
                    <mxGeometry x="-1320" y="480" width="310" height="180" as="geometry"/>
                </mxCell>
                <mxCell id="144" value="Background" style="html=1;strokeColor=#FF3333;" parent="143" vertex="1">
                    <mxGeometry width="110" height="30" relative="1" as="geometry">
                        <mxPoint x="20" y="50" as="offset"/>
                    </mxGeometry>
                </mxCell>
                <mxCell id="154" value="" style="endArrow=block;dashed=1;endFill=0;endSize=12;html=1;exitX=0.5;exitY=0;exitDx=0;exitDy=0;entryX=0.5;entryY=1;entryDx=0;entryDy=0;edgeStyle=orthogonalEdgeStyle;strokeColor=#FF3333;" parent="1" source="144" target="138" edge="1">
                    <mxGeometry width="160" relative="1" as="geometry">
                        <mxPoint x="-1130" y="440" as="sourcePoint"/>
                        <mxPoint x="-970" y="440" as="targetPoint"/>
                    </mxGeometry>
                </mxCell>
            </root>
        </mxGraphModel>
    </diagram>
</mxfile>